<?xml version="1.0" encoding="UTF-8"?>
<svg xmlns="http://www.w3.org/2000/svg" viewBox="460 60 404 640">
  <rect x="473.22" y="199.11" width="378.15" height="482.1" rx="51.36" ry="51.36" style="fill: #fff; stroke: #04528d; stroke-miterlimit: 10; stroke-width: 13px;"/>
  <g>
    <rect x="555.22" y="291.04" width="231.25" height="16.37" rx="8.19" ry="8.19" style="fill: #fedf00;"/>
    <rect x="603.22" y="266.59" width="123.81" height="16.37" rx="8.19" ry="8.19" style="fill: #fedf00;"/>
    <rect x="498.7" y="592.69" width="171.36" height="16.37" rx="8.19" ry="8.19" style="fill: #fedf00;"/>
    <rect x="719.63" y="592.69" width="82.31" height="16.37" rx="8.19" ry="8.19" style="fill: #04528d;"/>
    <rect x="499.88" y="569.93" width="230.07" height="16.37" rx="8.19" ry="8.19" style="fill: #fedf00;"/>
  </g>
  <g>
    <path d="M604,341.7c12.33.14,24.65.28,36.98.42,5.1,6.48,10.2,12.97,15.29,19.45-6.75,7.71-13.49,15.42-20.24,23.14,10.45,2.15,17.2,5.18,26.52,9.87,23.75-13.03,51.18-14.94,75.25-1.42,17.77,9.92,30.76,26.6,36.03,46.25,5.21,19.71,2.34,40.69-7.96,58.28-10.81,18.51-27,28.94-47.3,34.37-19.93,4.61-37.96.73-55.49-9.1-4.24,2.49-10.97,5.57-15.7,7.13-19.11,6.46-40.02,4.94-57.98-4.24-18.18-9.42-31.77-25.79-37.7-45.38-5.8-19.06-3.78-39.65,5.64-57.21,11.96-22.06,29.39-31.83,52.36-38.48-7.08-7.6-14.17-15.2-21.25-22.81,5.19-6.75,10.37-13.51,15.56-20.26Z" style="fill: #04528d;"/>
    <path d="M616.49,416.36c2.6-.42,5.69-.72,9.15-.67,4.97.07,9.21.83,12.5,1.67-17.31,29.66-16.62,53.96.39,83.25-3.41.94-8.04,1.85-13.55,1.86-4.32.01-8.06-.52-11.02-1.16-4.53-1.21-17.56-5.32-26.29-17.99-1.42-2.06-4.23-6.61-6.02-13.04-3.15-11.3-1.55-23.4,4.41-33.51,2.94-4.98,6.2-8.26,7.95-9.84,8.54-7.75,18.08-9.88,22.48-10.57Z" style="fill: #fff;"/>
    <path d="M723.45,421.42c7.7,4.46,11.84,10.52,13.52,12.99,6.67,9.77,9.12,21.83,6.77,33.43-2.76,13.38-9.98,21.7-20.98,29.07-3.64,1.64-8.67,3.43-14.85,4.33-8.78,1.28-16.12.2-20.79-.88.99-1.87,1.95-3.77,2.85-5.68,5.57-11.63,8.81-22.69,9.14-34.24.18-6.12.43-15.03-3.8-25.39-2.95-7.23-6.96-12.44-9.88-15.68,3.11-1.15,21.36-7.59,38.02,2.06Z" style="fill: #fff;"/>
    <path d="M696.44,395.55c8.23-.64,17.35.64,25.18,3.2,15.93,5.15,29.05,16.59,36.31,31.67,7.68,15.63,8.73,33.68,2.93,50.09-1.5,4.25-10.06,26.61-32.83,36.16-23.24,9.75-52.1,2.28-53.23-4.12-.02-.1-.2-1.22.45-2.1,2.42-3.28,12.77,1.79,20.26,3.46,18.89,4.2,36.98-9.37,39.43-11.29,12.19-9.55,19.8-24.53,21.17-42.74-.67-37.26-32.92-63.95-69.38-53.8-14.45,4.04-26.71,13.65-34.09,26.72-11.55,20.82-5.86,34.55.19,55.32.82,2.3.35,4.45-.87,5.19-.73.44-1.68.34-1.82.33,0,0-1.45.02-2.4-1.26-5.43-7.38-8.27-16.57-9.59-25.5-5.62-38.29,22.55-66.24,58.29-71.34Z" style="fill: #f9d62d;"/>
    <path d="M619.62,395.61c7.28-.81,11.96.47,18.33,1.76,8.16,1.65,10.37,3.33,10.75,5.14.24,1.12-.21,2.4-.95,3.25-3.35,3.85-12.22-1.45-23.8-2.02-8.34-.41-14.69,1.79-18.81,3.24-14.01,4.93-25.41,15.36-31.57,28.87-6.11,13.24-6.67,28.37-1.55,42.02,5.32,13.97,15.49,25.22,29.22,31.3,13.67,6.07,29.22,6.26,43.03.53,2.7-1.12,24.09-10.01,30.96-30.84,2.54-7.72,2.4-14.97,2.34-16.79-.3-8.97-3.34-23.38-5.47-27.82-.11-.23-.78-1.6-.84-3.45-.02-.7-.1-3.1,1.28-4.14,0,0,1.31-.99,3.91-.13,5.67,1.87,18.6,40.41-1.01,69.18-14.63,21.46-39.13,25.41-42.68,25.91-16.92,2.4-34.1-2.04-47.73-12.34-13.58-10.54-22.4-26.06-24.5-43.12-2.06-16.85,2.85-33.8,13.58-46.95,12.57-15.65,26.31-21.49,45.51-23.63Z" style="fill: #f9d62d;"/>
    <path d="M609.43,353.47l25.77.03,6.48,8.09-11.4,11.9-7.74,8.43c-2.91-3.18-6.02-6.44-9.33-9.73-3.73-3.71-7.4-7.15-10.99-10.35,2.4-2.79,4.81-5.57,7.21-8.36Z" style="fill: #fff;"/>
    <path d="M661.92,440.16c9.35,7.06,4.56,28.74,1.1,37.76-9.09-7.33-4.75-28.52-1.1-37.76Z" style="fill: #fff;"/>
  </g>
</svg>
