<?xml version="1.0" encoding="UTF-8"?>
<svg xmlns="http://www.w3.org/2000/svg" viewBox="410 60 404 640">
  <g>
    <rect x="422.84" y="199.15" width="378.15" height="482.1" rx="51.36" ry="51.36" style="fill: #fff; stroke: #077f44; stroke-miterlimit: 10; stroke-width: 13px;"/>
    <path d="M626.4,73.74c2.12-.57,3.47-.16,3.93,0,1.33.48,2.46,1.47,2.96,2.39,1.34,2.5-1.06,6.23-4.38,11.03-2.61,3.77-6,8.5-10.17,13.91,3.57,7.66,13.28,7.56,21.49,11.29,16.49,7.49,24.58,21.87,31.58,37.02.76.23,1.52.47,2.26.73,4.54,1.57,6.16,2.83,9.7,5.76,17.62,14.59-1.63,29.49-13.87,38.09-.8.56-3.1,6.64-3.64,8.09,9.21,20.05,10.29,55.01,5.14,75.54-3.95,16.28-14.26,30.3-28.63,38.93-16.37,9.75-32.26,10.02-50.15,5.66-1.33-.48-2.64-.99-3.95-1.52-15.51-6.39-27.82-18.73-34.16-34.26-9.13-22.23-7.32-62.16,2.38-84.79l-4.59-9.35c-8.08-4.29-14.5-6.56-17.87-15.82-5.29-14.54,4.65-22.62,16.69-27,10.56-24.31,20.18-33.43,45.3-42.22,3.12-1.09,3.99-1.94,4.93-4.49-1.48-.49-16.81-5.65-16.65-11.81,0-.26.05-1.82,1.14-2.89,1.51-1.5,4.26-1.27,9.44.19,3.53,1,8.3,2.6,13.81,5.25,2.42-5.26,5.14-9.15,7.2-11.75,1.89-2.38,5.7-6.78,10.11-7.97Z" style="fill: #077f44;"/>
    <path d="M608.85,117.32c5.55-.27,16.52,0,28.02,6.13,20.85,11.13,26.5,32.56,27.43,36.34,7.83.35,13.57,4.53,14.28,9.31.45,3.07-1.29,5.61-1.61,6.08-2.73,4-8.42,5.76-14.44,4.32-8.76,24.38-19.61,35.14-44.87,40.4-4.81.58-18.74,1.61-33.07-6.63-18.44-10.6-23.86-28.7-24.91-32.48-9.08-.27-15.22-5.34-15.35-10.01-.12-4.14,4.52-7.5,5.28-8.03,4.37-3.05,9.1-2.42,10.22-2.24,8.81-26.36,20.85-39.31,49.02-43.19Z" style="fill: #fff;"/>
    <path d="M610.98,193.75c1.12-.96,3.91-3.08,7.91-3.33,1.1-.07,5.62-.35,6.92,1.99,1.38,2.48-1.46,6.81-4.19,9.08-5.43,4.51-14.66,4.41-20.13-.11-2.77-2.28-5.79-6.7-4.37-9.25,1.25-2.25,5.45-2.18,7.4-1.88,3.48.53,5.68,2.68,6.46,3.5Z" style="fill: #077f44;"/>
    <path d="M630.49,160.57c3.24-1.49,7.08-.19,8.75,2.97,1.66,3.16.57,7.07-2.49,8.9-2.13,1.28-4.8,1.27-6.93-.01-2.13-1.29-3.37-3.65-3.23-6.13.14-2.48,1.64-4.69,3.9-5.73Z" style="fill: #077f44;"/>
    <path d="M586.57,160.59c3.24-1.41,7.02-.05,8.63,3.1,1.6,3.15.48,7.01-2.57,8.8-2.14,1.26-4.81,1.23-6.92-.08-2.11-1.31-3.32-3.69-3.14-6.17.18-2.48,1.72-4.65,4-5.65Z" style="fill: #077f44;"/>
    <path d="M658.67,215.91c1.95,3.88,2.87,8.74,2.8,13.04-.37,25.32,4.5,49.01-14.72,69.08-8.95,9.46-21.36,14.88-34.38,15-13.41.25-26.34-5.01-35.77-14.56-17.47-17.67-15.34-37.36-15.21-60.04-.21-7.21.77-15.62,1.41-22.9,13.29,12.74,27.77,28.17,40.8,41.41-1.92,1.55-4.43,3.81-7.01,6.87-2.62,3.11-8.22,9.75-6.3,13.09.55.96,1.77,1.73,2.9,2.09,1.62.51,3.02.14,3.57-.04,11.99-8.62,50.87-50.65,61.9-63.04Z" style="fill: #fff;"/>
    <path d="M627.79,229.64l.56.43c-.61,2.8-13.89,15.28-16.89,18.26l-7.56-7.93-10.4-10.89c15.08,2.59,19.65,2.94,34.3.11Z" style="fill: #fff;"/>
  </g>
  <rect x="540.82" y="446.29" width="140.19" height="16.37" rx="8.19" ry="8.19" style="fill: #077f44;"/>
  <rect x="462.87" y="476.8" width="252.94" height="16.37" rx="8.19" ry="8.19" style="fill: #077f44;"/>
  <rect x="462.87" y="507.3" width="252.94" height="16.37" rx="8.19" ry="8.19" style="fill: #077f44;"/>
  <rect x="462.87" y="537.81" width="193.28" height="16.37" rx="8.19" ry="8.19" style="fill: #077f44;"/>
  <rect x="462.87" y="629.32" width="193.28" height="16.37" rx="8.19" ry="8.19" style="fill: #077f44;"/>
  <rect x="688" y="629.32" width="62.02" height="16.37" rx="8.19" ry="8.19" style="fill: #f9d62d;"/>
  <circle cx="606.37" cy="382.65" r="33.36" style="fill: #f7d323;"/>
  <path d="M610.31,347.62l8.47,17.16,18.94,2.75c4.17.61,5.84,5.73,2.82,8.67l-13.7,13.36,3.23,18.86c.71,4.15-3.65,7.32-7.38,5.36l-16.94-8.9-16.94,8.9c-3.73,1.96-8.09-1.21-7.38-5.36l3.23-18.86-13.7-13.36c-3.02-2.94-1.35-8.07,2.82-8.67l18.94-2.75,8.47-17.16c1.87-3.78,7.25-3.78,9.12,0Z" style="fill: #077f44;"/>
  <path d="M607.67,367.87l3.57,7.24,7.99,1.16c1.76.26,2.46,2.42,1.19,3.66l-5.78,5.64,1.36,7.96c.3,1.75-1.54,3.09-3.11,2.26l-7.15-3.76-7.15,3.76c-1.57.83-3.41-.51-3.11-2.26l1.36-7.96-5.78-5.64c-1.27-1.24-.57-3.4,1.19-3.66l7.99-1.16,3.57-7.24c.79-1.59,3.06-1.59,3.85,0Z" style="fill: #fff;"/>
</svg>
