<?xml version="1.0" encoding="UTF-8"?>
<svg xmlns="http://www.w3.org/2000/svg" viewBox="550 60 404 640">
  <rect x="563.33" y="199.33" width="378.15" height="482.1" rx="51.36" ry="51.36" style="fill: #fff; stroke: #04528d; stroke-miterlimit: 10; stroke-width: 13px;"/>
  <g>
    <path d="M733.3,345.39c13.4-.02,26.8-.04,40.21-.06v45.62c16.49.06,32.97.11,49.46.17.02,13.15.04,26.31.06,39.46h-49.52v102.86h-40.12v-102.86h-47.96v-39.46h47.96c-.03-15.24-.06-30.48-.08-45.72Z" style="fill: #0a2f56;"/>
    <path d="M744.61,366.29h17.26c-.99,4.74-1.82,11-1.51,18.33.25,5.94,1.19,11.06,2.23,15.15,4.2,1.42,9.99,2.92,17.01,3.35,6.45.4,11.96-.22,16.1-1,0,4.71,0,9.41,0,14.12-3.29-.47-6.93-.8-10.87-.87-9.09-.15-16.93,1.15-23.08,2.71-1.36,10.32-2.36,21.76-2.69,34.18-.36,13.52.15,25.95,1.11,37.07h-14.18c1.14-10.98,1.79-23.55,1.37-37.4-.38-12.49-1.56-23.87-3.1-33.92-4.35-1.18-9.84-2.27-16.22-2.66-7-.43-13.06.12-17.8.89v-14.19c4.41.9,10.58,1.66,17.88,1.06,6.42-.53,11.75-1.95,15.69-3.32,1.13-4,2.2-9.17,2.47-15.27.34-7.41-.61-13.67-1.66-18.23Z" style="fill: #fff;"/>
  </g>
  <path d="M822.97,391.11c.02,13.15.03,26.3.05,39.45" style="fill: none;"/>
  <g>
    <rect x="649.19" y="292.59" width="231.25" height="16.37" rx="8.19" ry="8.19" style="fill: #fedf00;"/>
    <rect x="697.19" y="268.14" width="123.81" height="16.37" rx="8.19" ry="8.19" style="fill: #fedf00;"/>
    <rect x="592.67" y="594.24" width="171.36" height="16.37" rx="8.19" ry="8.19" style="fill: #fedf00;"/>
    <rect x="813.61" y="594.24" width="82.31" height="16.37" rx="8.19" ry="8.19" style="fill: #04528d;"/>
    <rect x="593.85" y="571.48" width="230.07" height="16.37" rx="8.19" ry="8.19" style="fill: #fedf00;"/>
  </g>
</svg>
