<?xml version="1.0" encoding="UTF-8"?>
<svg id="Camada_4" data-name="Camada 4" xmlns="http://www.w3.org/2000/svg" viewBox="120 355 1700 380">
  <path d="M304.21,383.42c58.92,0,90.92-.02,96.03-.08,4.34-.04,8.87.09,13.62.41,9.45.6,10.09,7.04,10.09,15.19-.02,71.71-.09,136.79-.19,195.24-.02,8.28-2.16,13.41-8.41,17.96-6.29,4.58-13.05,8.47-20.25,11.66-7.06,3.14-20.4,9.37-39.99,18.73-7.96,3.79-15.36,8.49-22.18,14.07-1.28,1.05-2.87,1.63-4.53,1.65-3.1.04-11.16.06-24.21.06s-21.11-.02-24.21-.06c-1.65-.02-3.25-.6-4.53-1.65-6.82-5.6-14.22-10.27-22.18-14.07-19.59-9.35-32.93-15.61-39.99-18.74-7.19-3.19-13.94-7.08-20.25-11.66-6.25-4.55-8.4-9.67-8.41-17.96-.09-58.45-.15-123.53-.15-195.24,0-8.15.64-14.59,10.09-15.19,4.73-.3,9.28-.45,13.62-.39,5.11.04,37.11.08,96.03.08M380.96,422.8c0-1.67-1.37-3.04-3.04-3.04h-148.45c-1.67,0-3.04,1.37-3.04,3.04v3.49c0,1.67,1.37,3.04,3.04,3.04h148.45c1.67,0,3.04-1.37,3.04-3.04v-3.49M283.16,446.03c0-1.65-1.32-2.96-2.96-2.97l-51.09-.09c-1.64-.01-2.98,1.32-2.97,2.96v4.21c0,1.65,1.31,2.96,2.96,2.97l51.09.09c1.64.01,2.98-1.32,2.97-2.96v-4.21M261.41,467.53c-1.28.84-3.27,2.37-5,4.86-1.56,2.25-2.3,4.4-2.67,5.82-.8,1.82-1.6,3.63-2.4,5.45-.45,1.01-1.28,1.8-2.29,2.18-10.89,4.08-18.89,7.31-21.77,20.02-1,4.45-.98,8.96.06,13.5.34,1.54-.04,3.14-1.01,4.36-10.14,12.62-10.42,25.51-.85,38.65.96,1.3,1.45,2.87,1.41,4.49-.13,6.48-.79,10.12.77,15.23,2.44,8.02,7.4,13.62,14.88,16.75,3.31,1.37,5.26,2.23,5.88,2.59.73.41,1.3,1.07,1.63,1.84,2.84,6.76,4.86,10.8,6.07,12.11,7.63,8.47,17.07,11.29,28.34,8.49,1.35-.32,2.8.04,3.81,1,7.83,7.34,16.62,10.95,27.35,7.25,6.14-2.12,10.24-4.55,12.32-7.31.49-.64,1.24-1.01,2.05-1.01,1.9,0,4.09.24,6.61.73,9.5,1.82,19.08-2.57,24.62-10.07.79-1.07,2.57-4.68,5.33-10.84.38-.85,1-1.56,1.78-2.03.79-.49,2.52-1.37,5.2-2.63,6.09-2.91,10.59-7.31,13.54-13.2,2.87-5.73,2.31-12.57,1.71-18.88-.13-1.33.3-2.67,1.2-3.68,8.62-9.54,10.26-20.23,4.92-32.08-1.31-2.91-4.26-6.48-5.6-8.53-.47-.69-.69-1.52-.66-2.35.09-2.76,1.05-7.64.73-10.93-.96-9.86-6.59-18.01-15.96-21.73-2.65-1.03-4.68-1.88-6.09-2.54-1.13-.51-1.99-1.48-2.37-2.67-3.7-11.63-11.4-18.28-23.1-19.95-3.83-.56-8.47.71-12.25.54-1.01-.04-1.99-.41-2.78-1.05-12.58-10.22-25.37-10.16-38.39.17-.71.56-1.58.92-2.48,1.05-4.21.54-8.77-.85-14.01.43-3.96.98-7.48,2.29-10.56,3.93Z" style="fill: #07ad26;"/>
  <path d="M380.96,426.3c0,1.67-1.37,3.04-3.04,3.04h-148.45c-1.67,0-3.04-1.37-3.04-3.04v-3.49c0-1.67,1.37-3.04,3.04-3.04h148.45c1.67,0,3.04,1.37,3.04,3.04v3.49h0Z" style="fill: #8ac343;"/>
  <path d="M283.15,450.24c0,1.64-1.33,2.97-2.97,2.96l-51.09-.09c-1.64-.01-2.96-1.33-2.96-2.97v-4.21c0-1.64,1.34-2.97,2.98-2.96l51.09.09c1.64.01,2.96,1.33,2.96,2.97v4.21h0Z" style="fill: #8ac343;"/>
  <path d="M283.15,471.66c0,1.64-1.33,2.97-2.97,2.96l-51.09-.09c-1.64-.01-2.96-1.33-2.96-2.97v-4.21c0-1.64,1.34-2.97,2.98-2.96l51.09.09c1.64.01,2.96,1.33,2.96,2.97v4.21h0Z" style="fill: #8ac343;"/>
  <path d="M253.74,478.21c1-3.14,3.55-6.69,7.66-10.69,3.08-1.63,6.59-2.95,10.56-3.93,5.24-1.28,9.8.11,14.01-.43.9-.13,1.77-.49,2.48-1.05,13.02-10.33,25.81-10.39,38.39-.17.79.64,1.77,1.01,2.78,1.05,3.78.17,8.41-1.11,12.25-.54,11.7,1.67,19.4,8.32,23.1,19.95.38,1.18,1.24,2.16,2.37,2.67,1.41.66,3.44,1.5,6.09,2.54,9.37,3.72,15.01,11.87,15.96,21.73.32,3.29-.64,8.17-.73,10.93-.04.83.19,1.65.66,2.35,1.33,2.05,4.28,5.62,5.6,8.53,5.33,11.85,3.7,22.54-4.92,32.08-.9,1.01-1.33,2.35-1.2,3.68.6,6.31,1.16,13.15-1.71,18.88-2.95,5.9-7.46,10.29-13.54,13.2-2.69,1.26-4.41,2.14-5.2,2.63-.79.47-1.41,1.18-1.78,2.03-2.76,6.16-4.55,9.77-5.33,10.84-5.54,7.49-15.12,11.89-24.62,10.07-2.52-.49-4.71-.73-6.61-.73-.81,0-1.56.38-2.05,1.01-2.08,2.76-6.18,5.18-12.32,7.31-10.72,3.7-19.51.09-27.35-7.25-1.01-.96-2.46-1.31-3.81-1-11.27,2.8-20.72-.02-28.34-8.49-1.2-1.31-3.23-5.35-6.07-12.11-.34-.77-.9-1.43-1.63-1.84-.62-.36-2.57-1.22-5.88-2.59-7.48-3.14-12.43-8.73-14.88-16.75-1.56-5.11-.9-8.75-.77-15.23.04-1.62-.45-3.19-1.41-4.49-9.58-13.15-9.3-26.03.85-38.65.98-1.22,1.35-2.82,1.01-4.36-1.03-4.55-1.05-9.05-.06-13.5,2.87-12.72,10.87-15.95,21.77-20.02,1.01-.38,1.84-1.16,2.29-2.18l2.4-5.45M308.21,623.94c6.74,0,12.11-4.88,16.51-9.3.86-.88,2.08-1.3,3.31-1.15,5.88.68,13.41,2.4,17.97.92,7.23-2.39,9.8-8.92,11.81-15.72.77-2.63,2.72-4.73,5.3-5.67,10.44-3.81,19.33-9.32,16.47-22.24-.92-4.19-1.39-6.99-1.41-8.38-.02-.73.24-1.43.73-1.97,6.82-7.68,14.42-15.46,7.14-25.32-1.97-2.69-4.15-5.2-6.5-7.57-1.5-1.5-2.05-3.74-1.39-5.78,1.31-4.11,1.88-7.78,1.71-11.01-.69-12.45-10.31-13.88-19.55-17.9-1.82-.79-3.19-2.33-3.79-4.21-2.8-8.85-5.56-15.27-15.7-16.66-4.64-.64-10.05,1.48-13.97,1.43-.9-.02-1.78-.34-2.48-.94-4.47-3.91-9.75-8.1-16.13-8.1s-11.68,4.19-16.15,8.1c-.69.58-1.56.92-2.48.94-3.93.06-9.33-2.07-13.97-1.43-10.14,1.39-12.9,7.81-15.7,16.66-.6,1.88-1.99,3.42-3.79,4.19-9.24,4.02-18.86,5.45-19.55,17.9-.19,3.23.39,6.91,1.71,11.01.66,2.05.11,4.28-1.39,5.78-2.37,2.37-4.53,4.9-6.52,7.57-7.29,9.86.32,17.64,7.14,25.32.49.54.75,1.26.73,1.97-.02,1.39-.49,4.19-1.41,8.38-2.85,12.92,6.03,18.43,16.47,22.24,2.55.96,4.53,3.06,5.3,5.69,2.01,6.8,4.58,13.34,11.81,15.72,4.56,1.48,12.1-.24,17.97-.92,1.22-.15,2.44.26,3.29,1.15,4.41,4.41,9.77,9.3,16.53,9.3h0Z" style="fill: #fff;"/>
  <path d="M308.23,464.39c6.39,0,11.66,4.19,16.13,8.1.69.6,1.58.92,2.48.94,3.93.06,9.33-2.07,13.97-1.43,10.14,1.39,12.9,7.81,15.7,16.66.6,1.88,1.97,3.42,3.79,4.21,9.24,4.02,18.86,5.45,19.55,17.9.17,3.23-.39,6.89-1.71,11.01-.66,2.05-.11,4.28,1.39,5.78,2.35,2.37,4.53,4.88,6.5,7.57,7.29,9.86-.32,17.64-7.14,25.32-.49.54-.75,1.24-.73,1.97.02,1.39.49,4.19,1.41,8.38,2.85,12.92-6.03,18.43-16.47,22.24-2.57.94-4.53,3.04-5.3,5.67-2.01,6.8-4.58,13.34-11.81,15.72-4.56,1.48-12.1-.24-17.97-.92-1.22-.15-2.44.26-3.31,1.15-4.4,4.41-9.77,9.3-16.51,9.3s-12.11-4.88-16.53-9.3c-.85-.88-2.07-1.3-3.29-1.15-5.88.68-13.41,2.4-17.97.92-7.23-2.39-9.8-8.92-11.81-15.72-.77-2.63-2.74-4.73-5.3-5.69-10.44-3.81-19.33-9.32-16.47-22.24.92-4.19,1.39-6.99,1.41-8.38.02-.71-.24-1.43-.73-1.97-6.82-7.68-14.42-15.46-7.14-25.32,1.99-2.67,4.15-5.2,6.52-7.57,1.5-1.5,2.05-3.74,1.39-5.78-1.31-4.09-1.9-7.78-1.71-11.01.69-12.45,10.31-13.88,19.55-17.9,1.8-.77,3.19-2.31,3.79-4.19,2.8-8.85,5.56-15.27,15.7-16.66,4.64-.64,10.05,1.48,13.97,1.43.92-.02,1.78-.36,2.48-.94,4.47-3.91,9.75-8.1,16.15-8.1M337.95,507.23c-.6-.53-1.52-.47-2.05.13l-39.56,44.93c-.62.71-1.71.79-2.4.17l-13.86-12.21c-.79-.7-1.95-.77-2.82-.17-5.56,3.89-9.62,7.81-12.17,11.8-.83,1.3-.66,3.01.43,4.09l27.25,27.23c1.45,1.45,3.76,1.6,5.39.36,2.97-2.27,6.03-5.24,9.18-8.94,14.59-17.17,29.56-34.09,44.91-50.75,1.13-1.22,1.01-3.14-.23-4.23l-14.09-12.42h0Z" style="fill: #013c8a;"/>
  <path d="M178.24,674c.51.24.98-.39.6-.81l-25.92-28.25c-.71-.79-1.35-1.63-1.92-2.55-4.3-7.04-8.62-15.18-12.96-24.36-5.6-11.89-11.87-22.29-17.49-33.85-1.86-3.81-2.54-6.54-2.03-8.13,1.13-3.44,4-6.89,7.79-7.78,11.53-2.65,18.97,2.74,25.94,11.59,3.38,4.3,9.41,13.58,18.11,27.84,13.15,21.56,35.89,28.19,62.19,39.2,24.98,10.48,46.04,23.16,54.28,50.09,2.24,7.33,3.36,20.02,3.31,30.28-.06,14.26-.17,23.59-.3,27.97-.04,1.26-1.11,2.25-2.37,2.22-26.09-.83-53.06-4.24-80.9-10.27-.85-.19-1.47-.94-1.45-1.82.09-12.47-1.73-18.69-13.8-25.28-6.39-3.47-16.51-8.71-30.39-15.76-8-4.06-16.25-9.45-23.46-13.97-8.7-5.47-15.57-12.53-20.59-21.19-11.18-19.23-20.06-38.22-26.61-56.97-6.05-17.32-3.61-35.91.56-56.85,2.93-14.63,7.55-33.04,13.86-55.2,2.01-7.01,3.91-12.57,5.71-16.72,3.1-7.17,11.14-9.64,17.88-5.77,9.52,5.45,8.15,20.59,6.14,29.73-4.3,19.57-7.64,36.4-10.01,50.51-.13.83-.56,1.58-1.2,2.12-2.82,2.39-5.69,3.36-8.4,6.67-6.91,8.51-5,15.74.11,24.91,5.65,10.12,13.05,24.83,22.2,44.16,4.45,9.41,10.29,17.02,17.49,22.84,7.98,6.44,15.85,11.59,23.61,15.42h0Z" style="fill: #fdca21;"/>
  <path d="M429.55,673.92c-.08.11-.06.28.04.38.11.09.26.09.38.02,5.95-4.32,16.42-9.67,23.1-15.44,8.36-7.21,15.36-16.83,20.98-28.85,4.77-10.22,11.63-23.59,20.59-40.14,7.1-13.11,3.68-21.04-8.06-29-.79-.53-1.31-1.35-1.48-2.29-3.4-18.99-7.06-36.68-11.03-53.08-2.39-9.82-3.1-30.2,12.92-29.71,9.58.28,12.4,8.7,14.82,16.98,5.77,19.8,11.36,42.2,16.77,67.2,3.02,13.96,5.33,35.84.24,50.05-7.53,21.02-16.87,40.96-28,59.8-4.41,7.48-10.72,13.99-18.93,19.53-9.79,6.63-26.97,16.02-51.58,28.21-11.72,5.8-18.59,14.12-17.32,27.69.11,1.22-.69,2.33-1.9,2.55-26.84,5.2-53.62,9.11-80.86,9.54-1.16.02-2.12-.88-2.18-2.05-1.37-30.69-2.37-67.63,23.65-89.05,6.74-5.56,15.51-10.95,24.34-14.86,21.24-9.39,34.09-14.97,38.5-16.72,15.61-6.2,27.63-16.36,36.06-30.5,6.57-11.04,19.97-36.49,35.18-36.96,10.56-.32,18.33,7.51,12.66,17.81-7.01,12.66-14.54,25.54-20.64,38.73-3.25,7.02-5.8,11.98-7.68,14.88-4.83,7.42-10.12,13.19-16.98,20.04-6.82,6.84-11.36,11.91-13.6,15.23h0Z" style="fill: #fdca21;"/>
  <path d="M168.62,584.99c-.54.41-1.01.36-1.39-.15-9.22-12.15-16.92-22.99-33.02-26.16-1.18-.23-1.97-1.37-1.78-2.57,2.1-12.7,5.26-29.26,9.43-49.72.75-3.62.86-6.95,1.18-11.51.08-1.26,1.28-2.14,2.5-1.86,7.34,1.71,11.63,6.48,12.87,14.31.69,4.45,1.11,6.91,1.22,7.36.19.66.56,1.22,1.09,1.63,1.78,1.35,4.4,1.56,5.67,3.79.94,1.63,1.45,3.17,1.52,4.62.81,17.86,1.18,37.7,1.09,59.5,0,.32-.13.56-.38.75h0Z" style="fill: #f4b102;"/>
  <path d="M440.2,585.14c-.24-.19-.38-.43-.38-.75-.09-21.84.28-41.72,1.11-59.6.06-1.45.56-3.01,1.52-4.64,1.28-2.23,3.89-2.44,5.67-3.79.54-.41.92-1,1.09-1.63.13-.47.54-2.93,1.24-7.38,1.24-7.83,5.54-12.62,12.88-14.33,1.22-.28,2.42.6,2.5,1.86.32,4.58.43,7.91,1.18,11.53,4.19,20.49,7.33,37.09,9.43,49.81.21,1.2-.6,2.35-1.78,2.57-16.12,3.17-23.83,14.03-33.08,26.2-.39.51-.85.56-1.39.15h0Z" style="fill: #f4b102;"/>
  <path d="M1621.33,514.67c-6.76-3.21-14.31-6.12-17.2,4.17-.17.62-.75,1.05-1.41,1.05h-9.17c-.71,0-1.28-.62-1.2-1.33.85-8.41,3.68-14.52,8.55-18.35,9.52-7.51,17.32-3.98,26.84.54,6.74,3.23,14.29,6.14,17.19-4.15.19-.62.75-1.05,1.41-1.05h9.17c.71,0,1.28.62,1.2,1.33-.85,8.4-3.68,14.52-8.53,18.35-9.52,7.51-17.34,3.96-26.84-.56h0Z" style="fill: #fff;"/>
  <path d="M337.95,507.23l14.09,12.42c1.24,1.09,1.35,3,.23,4.23-15.35,16.66-30.31,33.58-44.91,50.75-3.16,3.7-6.22,6.67-9.18,8.94-1.63,1.24-3.94,1.09-5.39-.36l-27.25-27.23c-1.09-1.09-1.26-2.8-.43-4.09,2.55-3.98,6.61-7.91,12.17-11.8.86-.6,2.03-.53,2.82.17l13.86,12.21c.69.62,1.78.54,2.4-.17l39.56-44.93c.53-.6,1.45-.66,2.05-.13h0Z" style="fill: #fff;"/>
  <path d="M716.59,527.67c35.91.09,52.35,25.28,52.27,58.79-.08,33.51-16.62,58.64-52.55,58.56-35.91-.09-52.35-25.28-52.27-58.79.08-33.51,16.62-58.64,52.55-58.56M678.13,586.29c-.09,25.43,9.35,47.18,38.26,47.29,28.91.09,38.5-21.6,38.6-47.03.09-25.43-9.35-47.2-38.26-47.29-28.91-.11-38.5,21.58-38.6,47.03h0Z" style="fill: #fff;"/>
  <path d="M1187.24,618.97c.23-.09.47.08.47.3v19.36c0,.24-.15.49-.39.6-8.02,3.79-18.5,5.71-31.46,5.77-27.29.07-44.36-14.73-49.21-40.95-6.86-37,7.74-76.03,51.05-76.24,11.59-.06,22.65,2.48,33.21,7.59.54.24.79.88.56,1.45l-6.87,17.66c-.21.53-.81.77-1.33.54-14.82-6.74-33.23-12.83-45.21,2.22-9.18,11.53-9.82,33.23-5.94,47.44,3.51,12.87,11.61,19.55,24.25,20.06,9.84.39,20.13-1.54,30.88-5.8h0Z" style="fill: #fff;"/>
  <path d="M1678.55,595.83c-.1,27.14-22.17,49.06-49.31,48.96l-9.58-.03c-27.14-.1-49.06-22.16-48.96-49.31l.07-18.63c.1-27.14,22.17-49.06,49.31-48.96l9.58.03c27.14.1,49.06,22.16,48.96,49.31l-.06,18.63M1595.75,586.25c0,19.33,5.5,38.48,28.92,38.5,23.4,0,28.94-19.16,28.94-38.48s-5.5-38.5-28.92-38.5-28.92,19.16-28.94,38.48h0Z" style="fill: #fff;"/>
  <path d="M1753.18,616.6c0-.45.47-.75.88-.58,6.37,2.82,12.43,5.09,18.2,6.84,8.1,2.44,26.58,5.3,30.71-4.88,3.74-9.26-2.74-14.26-10.59-18.31-19.21-9.94-39.05-17.22-37.62-41.47,1.62-27.7,30.07-33.73,52.21-29.07,6.2,1.31,12.6,3.38,19.2,6.18.49.21.73.77.53,1.26l-6.59,16.94c-.32.83-1.3,1.2-2.1.81-8.75-4.3-24.49-9.02-33.77-4.64-5.8,2.74-7.31,10.29-4.32,15.36,1.62,2.72,4.7,5.13,9.24,7.19,8.98,4.08,16.55,8.11,22.69,12.08,14.71,9.45,19.25,22.71,13.67,39.74-3.79,11.59-16.58,18.52-28.91,20.21-14.2,1.95-28.66.36-41.83-5.32-.98-.41-1.6-1.35-1.6-2.4v-19.93h0Z" style="fill: #fff;"/>
  <path d="M1018.29,641.13v-111.13c0-.41.34-.75.77-.75h11.78c.43,0,.79.36.79.79v100.86c0,.43.36.79.81.79h49.12c.41,0,.73.32.73.73v10.41c0,.41-.32.73-.71.73h-75.77c-.51,0-.98-.32-1.16-.79l-13.37-34.6c-.21-.53-.69-.88-1.26-.88h-43.78c-.64,0-1.2.39-1.43.98l-13.22,33.96c-.34.83-1.13,1.37-2.03,1.37h-10.41c-.68,0-1.15-.69-.9-1.33l43.88-112.64c.19-.47.62-.77,1.11-.77h9.79c.79,0,1.48.49,1.77,1.22l42.99,111.15c.11.28.53.21.53-.09M968.31,595.54c3.47,0,9.37,0,17.69-.02.56,0,.96-.56.75-1.09-7.01-17.32-13.09-34.18-18.28-50.58-.06-.19-.13-.28-.21-.28-.09,0-.15.09-.23.28-5.15,16.42-11.21,33.28-18.2,50.6-.21.53.19,1.09.75,1.09h17.71Z" style="fill: #fff;"/>
  <path d="M602.12,643.57h-11.7c-.43,0-.79-.36-.79-.79v-112.17c0-.64.51-1.15,1.15-1.16,10.89-.17,20.66-.19,29.32-.04,25.58.43,44.57,9.65,41.45,38.73-3.19,29.9-35.05,31.18-57.74,30.45-.51-.02-.94.41-.94.92v43.29c0,.43-.34.77-.75.77M602.85,541.25l.08,45.27c0,.24.19.43.43.43l20.81-.04c13.22-.02,23.93-9.22,23.91-20.53v-5.15c-.02-11.33-10.76-20.47-23.98-20.45l-20.81.04c-.24,0-.43.19-.43.43h0Z" style="fill: #fff;"/>
  <path d="M858.51,643.55h-14.63c-.32,0-.6-.17-.77-.43l-27.1-46.22c-.36-.62-1.03-1-1.75-1h-21.94c-.38,0-.69.32-.69.7v46.22c0,.43-.34.79-.77.79h-11.76c-.41,0-.75-.34-.75-.75v-112.81c0-.36.28-.64.62-.64,16.3-.19,29.07-.08,38.33.32,16.43.71,30.58,8.26,32.98,26.07,2.37,17.62-4.94,29.62-21.9,36.02-.49.17-.68.75-.41,1.18l30.67,50.32c.06.09-.02.23-.13.23M791.52,541.4l.23,42.75c0,.23.17.39.39.39l22.84-.11c12.11-.08,21.88-8.6,21.82-19.08l-.04-5.6c-.06-10.48-9.92-18.93-22.01-18.86l-22.84.11c-.23,0-.39.19-.39.39h0Z" style="fill: #fff;"/>
  <path d="M889.39,529.36c14.12.02,27.93,0,41.4-.02.64,0,1.15.53,1.15,1.16v9.41c0,.64-.51,1.15-1.15,1.15h-33.62c-.58,0-1.07.49-1.07,1.09v100.69c0,.38-.3.69-.68.73-.43.04-2.44.06-5.99.06s-5.56-.02-6.01-.06c-.38-.04-.68-.36-.68-.73l-.04-100.69c0-.6-.47-1.09-1.07-1.09l-33.62.02c-.64,0-1.15-.51-1.15-1.15v-9.41c0-.64.51-1.16,1.15-1.16,13.47.02,27.27.02,41.38,0h0Z" style="fill: #fff;"/>
  <path d="M1258.86,575.13v18.14c0,.45-.38.83-.83.83h-37c-.45,0-.83.38-.83.83v27.82c0,.45.38.83.83.83h39.82c.45,0,.83.38.83.83v18.35c0,.45-.38.83-.83.83h-64.03c-.45,0-.83-.38-.83-.83v-112.56c0-.45.38-.83.83-.83h64.08c.45,0,.83.38.83.83v18.12c0,.45-.38.83-.83.83h-39.87c-.45,0-.83.38-.83.83v23.52c0,.45.38.83.83.83h37c.45,0,.83.38.83.83h0Z" style="fill: #fff;"/>
  <path d="M1359.83,643.59h-25.13c-.56,0-1.07-.3-1.37-.79l-25.66-42.09c-.38-.64-1.07-1.01-1.82-1.01h-10.71c-.68,0-1.24.56-1.24,1.24v41.55c0,.6-.49,1.09-1.07,1.09h-22.18c-.53,0-.94-.41-.94-.94v-112.51c0-.45.36-.81.81-.81,18.65.08,29.23.09,31.76.06,19.72-.32,42,4.09,45.72,27.38,2.65,16.4-4.04,28.64-20.06,36.72-.34.17-.43.6-.23.9l32.59,48.29c.26.39,0,.92-.47.92M1293.85,549.83l.15,29.6c0,.26.21.47.47.47l12.45-.06c9.49-.06,17.15-6.12,17.09-13.54l-.02-3.64c-.04-7.44-7.74-13.41-17.22-13.35l-12.45.06c-.26,0-.47.21-.47.47h0Z" style="fill: #fff;"/>
  <path d="M1391.31,529.37c27.44,0,41.49,0,42.17.02.51-.02.92.39.94.92l.02,17.64c0,.85-.68,1.54-1.52,1.54h-28.32c-.64,0-1.16.51-1.16,1.15v92.11c0,.47-.38.86-.85.85-4.3-.02-8.06-.02-11.25-.02s-6.97,0-11.27.02c-.45.02-.85-.38-.85-.85l-.02-92.11c0-.64-.51-1.15-1.16-1.15h-28.32c-.83,0-1.52-.68-1.52-1.54l.02-17.64c.02-.51.43-.92.94-.92.68-.02,14.73-.02,42.17-.02h0Z" style="fill: #fff;"/>
  <path d="M1460.09,642.61c0,.53-.41.94-.94.94h-22.31c-.53,0-.94-.41-.94-.94v-112.32c0-.53.41-.94.94-.94h22.31c.53,0,.94.41.94.94v112.32h0Z" style="fill: #fff;"/>
  <path d="M1473.22,529.73c0-.23.19-.43.43-.43l40.44.15c29.64.09,53.59,23.31,53.49,51.84l-.04,10.52c-.09,28.53-24.21,51.56-53.87,51.46l-40.44-.15c-.23,0-.43-.19-.41-.43l.39-112.96M1497.15,549.43l.11,73.51c0,.28.24.51.51.51l13.84-.02c17.09-.04,30.9-13.97,30.88-31.12l-.04-12.4c-.02-17.17-13.88-31.05-30.95-31.01l-13.84.02c-.28,0-.51.23-.51.51h0Z" style="fill: #fff;"/>
  <path d="M1710.87,573.04c0,.71.56,1.3,1.28,1.3l36.49-.04c.49,0,.88.39.88.88v17.86c0,.6-.49,1.07-1.07,1.07l-36.78-.02c-.43,0-.79.36-.79.79l-.04,27.93c0,.41.34.75.75.75h39.8c.43,0,.81.36.83.83l.17,17.99c0,.66-.53,1.2-1.18,1.2l-63.69-.04c-.49,0-.86-.39-.86-.86l.02-112.49c0-.47.38-.83.85-.83l64.24.02c.38,0,.68.3.68.68l-.02,18.26c0,.47-.39.86-.86.86l-39.74-.06c-.51,0-.92.41-.92.92l-.02,22.99h0Z" style="fill: #fff;"/>
  <path d="M1833.35,680.35c0,.53-.41.94-.94.94h-696.56c-.53,0-.94-.41-.94-.94v-3.61c0-.53.41-.94.94-.94h696.56c.53,0,.94.41.94.94v3.61h0Z" style="fill: #fff;"/>
</svg>