<?xml version="1.0" encoding="UTF-8"?>
<svg id="Capa_1" data-name="Capa 1" xmlns="http://www.w3.org/2000/svg" viewBox="0 0 2000 2000">
  <g>
    <path d="M1000,1790.72c-106.74,0-210.3-20.91-307.79-62.14-94.16-39.83-178.72-96.84-251.34-169.46-72.62-72.62-129.63-157.18-169.46-251.34-41.23-97.49-62.14-201.04-62.14-307.79s20.91-210.3,62.14-307.79c39.83-94.16,96.84-178.72,169.46-251.34,72.62-72.62,157.18-129.63,251.34-169.46,97.49-41.23,201.04-62.14,307.79-62.14s210.3,20.91,307.79,62.14c94.16,39.83,178.72,96.84,251.34,169.46,72.62,72.62,129.63,157.18,169.46,251.34,41.23,97.49,62.14,201.04,62.14,307.79s-20.91,210.3-62.14,307.79c-39.83,94.16-96.84,178.72-169.46,251.34-72.62,72.62-157.18,129.63-251.34,169.46-97.49,41.23-201.04,62.14-307.79,62.14Z" style="fill: #fff;"/>
    <path d="M1000,216.19c432.89,0,783.81,350.93,783.81,783.81s-350.92,783.81-783.81,783.81S216.19,1432.89,216.19,1000,567.11,216.19,1000,216.19M1000,202.37c-54.11,0-108.19,5.45-160.74,16.2-51.22,10.48-101.6,26.12-149.74,46.48-47.27,19.99-92.85,44.74-135.5,73.54-42.23,28.53-81.95,61.3-118.04,97.39-36.09,36.09-68.86,75.8-97.39,118.04-28.81,42.64-53.55,88.23-73.54,135.49-20.36,48.14-36,98.52-46.48,149.74-10.75,52.55-16.2,106.63-16.2,160.74s5.45,108.19,16.2,160.74c10.48,51.22,26.12,101.6,46.48,149.74,19.99,47.27,44.74,92.85,73.54,135.49,28.53,42.23,61.3,81.95,97.39,118.04,36.09,36.09,75.8,68.86,118.04,97.39,42.64,28.81,88.23,53.55,135.5,73.54,48.14,20.36,98.52,36,149.74,46.48,52.55,10.75,106.63,16.2,160.74,16.2s108.19-5.45,160.74-16.2c51.22-10.48,101.6-26.12,149.74-46.48,47.27-19.99,92.85-44.74,135.49-73.54,42.23-28.53,81.95-61.3,118.04-97.39,36.09-36.09,68.86-75.8,97.39-118.04,28.81-42.64,53.55-88.23,73.54-135.49,20.36-48.14,36-98.52,46.48-149.74,10.75-52.55,16.2-106.63,16.2-160.74s-5.45-108.19-16.2-160.74c-10.48-51.22-26.12-101.6-46.48-149.74-19.99-47.27-44.74-92.85-73.54-135.49-28.53-42.23-61.3-81.95-97.39-118.04-36.09-36.09-75.81-68.86-118.04-97.39-42.64-28.81-88.23-53.55-135.49-73.54-48.14-20.36-98.52-36-149.74-46.48-52.55-10.75-106.63-16.2-160.74-16.2h0Z" style="fill: #0c6303;"/>
  </g>
  <path d="M1000,227.21c-426.8,0-772.79,345.99-772.79,772.79s345.99,772.79,772.79,772.79,772.79-345.99,772.79-772.79S1426.8,227.21,1000,227.21ZM1000,1506.64c-279.81,0-506.64-226.83-506.64-506.64s226.83-506.64,506.64-506.64,506.64,226.83,506.64,506.64-226.83,506.64-506.64,506.64Z" style="fill: #0c6303;"/>
  <g>
    <path d="M475.08,1378.1l.21-.17c20.6-17.02,50.31-15.41,68.71,6.87,11.3,13.68,13.51,25.63,12.45,37.83l-20.08-.49c.45-9.78-1.16-18.05-7.15-25.3-10.1-12.23-27.52-12.66-39.94-2.39l-.21.17c-12.42,10.26-15.67,27.41-5.39,39.85,6.85,8.29,14.35,10.63,24.24,12.06l-1.86,18.62c-14.13-.88-25.95-5.06-37.5-19.05-17.63-21.35-14.27-50.79,6.53-67.98Z" style="fill: #fff;"/>
    <path d="M592.08,1438.87l54.59,45.34-11.75,14.15-38.77-32.2-12.18,14.67,34.12,28.34-11.75,14.15-34.12-28.34-12.61,15.18,39.29,32.63-11.75,14.15-55.11-45.77,60.05-72.3Z" style="fill: #fff;"/>
    <path d="M677.49,1505.31l37.61,20.87c10.46,5.8,16.94,13.24,19.35,21.64,2.04,7.12.93,14.95-3.37,22.7l-.13.23c-7.36,13.27-19.16,17.62-31.77,15.69l3.81,40.5-21.16-11.74-3.04-36.08-14.22-7.89-14.59,26.3-18.1-10.04,45.6-82.18ZM691.78,1565.45c8.81,4.89,16.47,3,20.32-3.93l.13-.23c4.3-7.75,1.11-14.74-7.71-19.63l-17.98-9.98-13.09,23.6,18.34,10.17Z" style="fill: #fff;"/>
    <path d="M795.1,1582.53l-27.17-9.03,6.01-18.09,73.98,24.59-6.02,18.09-27.17-9.03-23.64,71.09-19.64-6.53,23.64-71.09Z" style="fill: #fff;"/>
    <path d="M884.22,1587.04l20.38,3.62-16.41,92.54-20.38-3.62,16.41-92.54Z" style="fill: #fff;"/>
    <path d="M947.85,1596.76l71.61,2.21-.58,18.79-50.92-1.57-.62,19.99,44.87,1.39-.58,18.79-44.87-1.39-1.12,36.36-20.69-.64,2.91-93.93Z" style="fill: #fff;"/>
    <path d="M1057,1595.4l20.57-2.33,10.56,93.39-20.57,2.32-10.56-93.39Z" style="fill: #fff;"/>
    <path d="M1128.83,1633.76l-.07-.26c-7.05-25.77,6.63-52.2,34.5-59.82,17.11-4.68,28.91-1.78,39.61,4.2l-8.7,18.11c-8.74-4.43-16.93-6.37-26-3.89-15.3,4.18-22.85,19.89-18.6,35.43l.07.26c4.25,15.54,18.55,25.55,34.11,21.29,10.37-2.84,15.59-8.72,20.95-17.14l16.21,9.35c-6.61,12.52-15.28,21.58-32.78,26.36-26.71,7.3-52.17-7.87-59.29-33.9Z" style="fill: #fff;"/>
    <path d="M1260.35,1537.55l17.02-8.63,78.77,66.18-19.3,9.79-17.2-14.91-35.48,17.99,1.86,22.69-18.82,9.54-6.85-102.65ZM1304.79,1577.03l-24.93-21.53,2.64,32.83,22.3-11.31Z" style="fill: #fff;"/>
    <path d="M1340.06,1493.18l28.65-22.92c23.09-18.47,51.71-15.4,68.23,5.25l.17.21c16.52,20.66,13.4,49.46-9.69,67.93l-28.65,22.92-58.71-73.39ZM1367.89,1494.83l35.39,44.25,12.49-9.99c13.22-10.58,15.02-26.63,4.62-39.63l-.17-.21c-10.4-13-26.62-14.99-39.84-4.41l-12.49,9.99Z" style="fill: #fff;"/>
    <path d="M1467.1,1447.11l-.21-.17c-20.68-16.92-24.26-47.11-5.88-69.58,18.38-22.47,48.3-24.91,68.98-8l.21.17c20.68,16.92,24.26,47.1,5.88,69.58-18.38,22.47-48.3,24.91-68.98,8ZM1516.71,1386.46l-.21-.17c-12.47-10.2-30.35-9.54-40.9,3.36-10.55,12.9-7.69,30.18,4.78,40.38l.21.17c12.47,10.2,30.35,9.54,40.9-3.36,10.55-12.9,7.69-30.18-4.78-40.38Z" style="fill: #fff;"/>
  </g>
  <polygon points="872.03 1094.74 1225.05 735.59 1312.68 899.77 872.03 1262.34 687.33 1087.9 789.94 998.97 872.03 1094.74" style="fill: #0c6303;"/>
  <polygon points="1683.47 1071.01 1638.83 1050.7 1596.78 1075.96 1602.3 1027.23 1565.29 995.04 1613.34 985.23 1632.51 940.08 1656.69 982.76 1705.55 987.03 1672.43 1023.22 1683.47 1071.01" style="fill: #fff;"/>
  <polygon points="390.42 1071.01 345.77 1050.7 303.73 1075.96 309.25 1027.23 272.23 995.04 320.29 985.23 339.45 940.08 363.63 982.76 412.5 987.03 379.38 1023.22 390.42 1071.01" style="fill: #fff;"/>
  <circle cx="1000" cy="998.97" r="641.98" transform="translate(-413.48 999.7) rotate(-45)" style="fill: none;"/>
  <g>
    <path d="M453.51,659.6l-.22-.16c-22.24-16.04-27.41-45.62-10.75-68.73,11.24-15.59,25.02-20.9,39.16-20.98l.84,24.8c-8.49.51-15.7,2.93-20.97,10.23-7.7,10.68-3.97,24.81,7.15,32.83l.22.16c11.45,8.25,25.81,7.18,33.51-3.5,5.74-7.96,5.41-15.32,3.16-23.91l22.81-7.74c4.73,14.35,5.04,29.32-7.07,46.1-15.72,21.8-45.06,27.32-67.84,10.89Z" style="fill: #fff;"/>
    <path d="M504.52,518.79l55.45-51.48,15,16.15-36.54,33.93,9.78,10.54,33.09-30.72,13.99,15.07-33.09,30.72,10.15,10.93,37.03-34.38,15.09,16.25-55.95,51.94-64.01-68.95Z" style="fill: #fff;"/>
    <path d="M605.41,432.65l37.89-23.31c12.25-7.53,22.69-9.54,31.38-7.47,7.58,1.81,13.72,6.39,18.58,14.29l.14.23c7.61,12.36,6.08,24.5-1.27,34.87l36.3,16.17-25.53,15.7-31.07-14.34-9.84,6.06,14.93,24.27-22.21,13.66-49.29-80.13ZM666.05,448.36c7.44-4.58,9.65-10.99,6.06-16.82l-.14-.23c-3.94-6.41-10.61-6.73-17.93-2.22l-14.65,9.01,11.9,19.35,14.77-9.08Z" style="fill: #fff;"/>
    <path d="M756.87,378.43l-26.35,9.74-7.92-21.43,77.28-28.56,7.92,21.43-26.47,9.78,24.69,66.82-24.46,9.04-24.69-66.82Z" style="fill: #fff;"/>
    <path d="M851.6,325.86l25.57-5.11,18.43,92.26-25.57,5.11-18.43-92.26Z" style="fill: #fff;"/>
    <path d="M934.63,312.11l75.19-3.24.98,22.83-49.14,2.12.69,15.98,44.45-1.91.93,21.62-44.45,1.91,1.45,33.57-26.05,1.12-4.05-93.99Z" style="fill: #fff;"/>
    <path d="M1063.21,312.69l25.92,2.85-10.28,93.52-25.92-2.85,10.28-93.52Z" style="fill: #fff;"/>
    <path d="M1131.31,369.16l.07-.26c7.4-26.4,33.39-41.45,60.83-33.76,18.51,5.19,28.24,16.29,33.18,29.54l-22.99,9.33c-3.4-7.79-8.16-13.73-16.83-16.16-12.68-3.55-24.66,4.81-28.36,18.01l-.07.26c-3.81,13.59,2.15,26.7,14.83,30.26,9.45,2.65,16.25-.19,23.53-5.27l15.12,18.75c-11.84,9.38-25.79,14.83-45.72,9.24-25.88-7.25-41.17-32.89-33.59-59.94Z" style="fill: #fff;"/>
    <path d="M1310.28,382.73l22.23,11.73-8.79,102.49-24.73-13.04,1.96-18.11-32.21-16.99-13.85,11.84-24.13-12.73,79.52-65.18ZM1303.65,444.27l3.15-28.43-21.81,18.58,18.66,9.85Z" style="fill: #fff;"/>
    <path d="M1411.1,444.3l27.84,23.49c25.58,21.58,27.99,48.94,10.49,69.69l-.17.21c-17.51,20.75-45.61,23.42-71.39,1.66l-27.43-23.14,60.67-71.91ZM1416.21,478.68l-30.94,36.67,8.11,6.85c12.02,10.14,25.47,10.24,35.27-1.37l.17-.21c9.71-11.5,7.52-24.96-4.5-35.1l-8.11-6.85Z" style="fill: #fff;"/>
    <path d="M1479.81,569.86l.21-.16c21.48-16.39,52.1-12.36,69.71,10.72,17.61,23.08,13.45,53.3-8.03,69.69l-.21.16c-21.48,16.39-52.1,12.36-69.71-10.72-17.61-23.08-13.45-53.3,8.03-69.69ZM1525.05,629.16l.21-.16c10.9-8.32,14.33-23.1,5.6-34.53-8.72-11.43-23.7-12.01-34.49-3.78l-.21.16c-10.79,8.23-14.24,23.21-5.52,34.64,8.64,11.33,23.62,11.9,34.41,3.67Z" style="fill: #fff;"/>
  </g>
</svg>